<svg height="464pt" viewBox="0 -29 464 464" width="464pt" xmlns="http://www.w3.org/2000/svg"><path d="m424 37.917969v336h-160c-17.671875 0-32 14.328125-32 32v-336c0-17.671875 14.328125-32 32-32zm0 0" fill="#000"/><path d="m200 373.917969h-160v-304h-40v336h232c0-17.671875-14.328125-32-32-32zm0 0" fill="#000"/><path d="m200 37.917969h-160v336h160c17.671875 0 32 14.328125 32 32v-336c0-17.671875-14.328125-32-32-32zm0 0" fill="#000"/><path d="m424 373.917969h-160c-17.671875 0-32 14.328125-32 32h232v-336h-40zm0 0" fill="#000"/><path d="m424 101.917969v272h-160c-17.671875 0-32 14.328125-32 32v-102.320313c79.472656-50.582031 145.386719-119.816406 192-201.679687zm0 0" fill="#000"/><path d="m356.945312 70.996094-41.410156 154.546875 26.769532 23.734375 45.550781-170zm0 0" fill="#000"/><path d="m356.945312 70.996094-30.914062-8.285156-45.550781 170.007812 35.054687-7.175781zm0 0" fill="#000"/><path d="m326.03125 62.710938 6.214844-23.175782zm0 0" fill="#000"/><path d="m387.855469 79.277344 6.207031-23.183594-61.816406-16.558594-6.214844 23.175782 30.914062 8.285156zm0 0" fill="#000"/><path d="m398.207031 40.636719c3.109375-11.09375.015625-23-8.097656-31.179688-8.117187-8.175781-20-11.359375-31.117187-8.335937-11.117188 3.027344-19.746094 11.792968-22.601563 22.957031l-4.144531 15.441406 61.816406 16.558594zm0 0" fill="#000"/><path d="m64 77.917969h32v16h-32zm0 0" fill="#000"/><g fill="#000"><path d="m112 77.917969h96v16h-96zm0 0"/><path d="m64 125.917969h144v16h-144zm0 0"/><path d="m64 173.917969h96v16h-96zm0 0"/><path d="m64 221.917969h144v16h-144zm0 0"/><path d="m64 269.917969h144v16h-144zm0 0"/><path d="m64 317.917969h144v16h-144zm0 0"/><path d="m296.902344 303.09375c-.699219 0-1.394532-.09375-2.070313-.28125-4.269531-1.140625-6.804687-5.523438-5.664062-9.789062l6.214843-23.203126c1.25-4.136718 5.554688-6.53125 9.730469-5.414062 4.171875 1.117188 6.703125 5.34375 5.71875 9.550781l-6.207031 23.199219c-.933594 3.5-4.101562 5.933594-7.722656 5.9375zm0 0"/></g><path d="m176 173.917969h32v16h-32zm0 0" fill="#000"/><path d="m342.304688 249.277344-26.769532-23.734375-35.054687 7.175781 14.902343 37.117188 15.457032 4.136718zm0 0" fill="#000"/></svg>
